<svg xmlns="http://www.w3.org/2000/svg" viewBox="0 0 100 100">
  <circle cx="50" cy="50" r="45" fill="#1a1a2e"/>
  <circle cx="50" cy="50" r="35" fill="#ffd700"/>
  <circle cx="50" cy="50" r="15" fill="#8b4513"/>
  <g fill="#ff8c00">
    <ellipse cx="50" cy="15" rx="6" ry="12" transform="rotate(0 50 50)"/>
    <ellipse cx="50" cy="15" rx="6" ry="12" transform="rotate(30 50 50)"/>
    <ellipse cx="50" cy="15" rx="6" ry="12" transform="rotate(60 50 50)"/>
    <ellipse cx="50" cy="15" rx="6" ry="12" transform="rotate(90 50 50)"/>
    <ellipse cx="50" cy="15" rx="6" ry="12" transform="rotate(120 50 50)"/>
    <ellipse cx="50" cy="15" rx="6" ry="12" transform="rotate(150 50 50)"/>
    <ellipse cx="50" cy="15" rx="6" ry="12" transform="rotate(180 50 50)"/>
    <ellipse cx="50" cy="15" rx="6" ry="12" transform="rotate(210 50 50)"/>
    <ellipse cx="50" cy="15" rx="6" ry="12" transform="rotate(240 50 50)"/>
    <ellipse cx="50" cy="15" rx="6" ry="12" transform="rotate(270 50 50)"/>
    <ellipse cx="50" cy="15" rx="6" ry="12" transform="rotate(300 50 50)"/>
    <ellipse cx="50" cy="15" rx="6" ry="12" transform="rotate(330 50 50)"/>
  </g>
</svg>
